<svg xmlns="http://www.w3.org/2000/svg" viewBox="0 0 339.03 339.03">
  <path fill="#ebf4ff"
    d="M169.52,0C76,0,0,76,0,169.52S76,339,169.52,339,339,263,339,169.52,263,0,169.52,0ZM143.37,17.22a216,216,0,0,0-37.52,42.06A204.66,204.66,0,0,0,93,81H42.93A154.77,154.77,0,0,1,143.37,17.22ZM33.63,96H86.09a195.17,195.17,0,0,0-14.6,66.79H15.16A153.41,153.41,0,0,1,33.63,96ZM15.22,177.81H71.49A189.56,189.56,0,0,0,86.13,244.6H34.51A153.6,153.6,0,0,1,15.22,177.81ZM44.05,259.6H93.21a209.23,209.23,0,0,0,49.89,62.16A154.75,154.75,0,0,1,44.05,259.6Zm118,58a192.46,192.46,0,0,1-51.59-58H162Zm0-73H102.64A176,176,0,0,1,86.5,177.81H162V244.6Zm0-81.79H86.5A177.48,177.48,0,0,1,102.34,96H162v66.79ZM162,81H110q3.84-6.76,8.28-13.32A191.65,191.65,0,0,1,162,21.55V81Zm161.86,81.79H267.54A195.17,195.17,0,0,0,252.94,96H305.4A153.41,153.41,0,0,1,323.88,162.81ZM296.1,81H246a204.66,204.66,0,0,0-12.86-21.74,216.31,216.31,0,0,0-37.52-42.06A154.73,154.73,0,0,1,296.1,81ZM177,21.55A191.84,191.84,0,0,1,220.77,67.7Q225.21,74.26,229,81H177ZM177,96h59.67a177.48,177.48,0,0,1,15.84,66.79H177V96Zm0,81.79h75.51a176,176,0,0,1-16.14,66.79H177V177.81Zm0,81.79H228.6a192.58,192.58,0,0,1-51.58,58Zm18.92,62.16a207.72,207.72,0,0,0,37.21-41.18,203,203,0,0,0,12.67-21H295A154.75,154.75,0,0,1,195.94,321.76ZM304.52,244.6H252.9a189.56,189.56,0,0,0,14.64-66.79h56.27A153.46,153.46,0,0,1,304.52,244.6Z" />
</svg>