<svg version="1.1" xmlns="http://www.w3.org/2000/svg" viewBox="0 0 339 339">
	<path fill="#ebf4ff" d="M169.5,15c41.3,0,80.1,16.1,109.3,45.3c29.2,29.2,45.3,68,45.3,109.3s-16.1,80.1-45.3,109.3
	c-29.2,29.2-68,45.3-109.3,45.3S89.4,308,60.3,278.8C31.1,249.6,15,210.8,15,169.5S31.1,89.4,60.3,60.3C89.4,31.1,128.2,15,169.5,15
	 M169.5,0C75.9,0,0,75.9,0,169.5S75.9,339,169.5,339S339,263.1,339,169.5S263.1,0,169.5,0L169.5,0z" />
	<path fill="#ebf4ff"
		d="M76.4,144.9c13.6,0,24.6,11,24.6,24.6s-11,24.6-24.6,24.6s-24.6-11-24.6-24.6S62.8,144.9,76.4,144.9
		 M76.4,134.9c-19.1,0-34.6,15.5-34.6,34.6s15.5,34.6,34.6,34.6s34.6-15.5,34.6-34.6S95.5,134.9,76.4,134.9L76.4,134.9z" />
	<path fill="#ebf4ff"
		d="M171.6,144.9c13.6,0,24.6,11,24.6,24.6s-11,24.6-24.6,24.6s-24.6-11-24.6-24.6S158,144.9,171.6,144.9
		 M171.6,134.9c-19.1,0-34.6,15.5-34.6,34.6s15.5,34.6,34.6,34.6s34.6-15.5,34.6-34.6S190.7,134.9,171.6,134.9L171.6,134.9z" />
	<path fill="#ebf4ff"
		d="M262.6,144.9c13.6,0,24.6,11,24.6,24.6s-11,24.6-24.6,24.6c-13.6,0-24.6-11-24.6-24.6S249,144.9,262.6,144.9
		 M262.6,134.9c-19.1,0-34.6,15.5-34.6,34.6s15.5,34.6,34.6,34.6c19.1,0,34.6-15.5,34.6-34.6S281.7,134.9,262.6,134.9L262.6,134.9z" />
</svg>