<svg version="1.1" xmlns="http://www.w3.org/2000/svg" viewBox="0 0 339 339">
  <path fill="#ebf4ff" d="M195.2,73.7l-3.7,6.5c-0.1,0.2-0.4,0.3-0.5,0.1L161,63c-0.2-0.1-0.3-0.4-0.1-0.5l3.7-6.5c0.1-0.2,0.4-0.3,0.5-0.1l30,17.3
		C195.3,73.2,195.4,73.5,195.2,73.7z" />
  <path fill="#ebf4ff" d="M277.6,94.7l16.2-47.9c0.2-0.5-0.3-0.9-0.7-0.7l-47.9,16.2c-0.2,0.1-0.4,0-0.5-0.1L204.2,32c-0.4-0.3-0.9,0-0.9,0.5
		l0.6,50.5c0,0.2-0.1,0.4-0.2,0.5l-41.3,29.2c-0.4,0.3-0.3,0.9,0.2,1l37.7,11.7c0.4,0.1,0.6,0.7,0.2,1L15.9,311.1l12.5,12.5
		l184.9-184.9c0.3-0.3,0.8-0.2,1,0.2l11.9,38.4c0.1,0.5,0.8,0.6,1,0.2l29.2-41.3c0.1-0.2,0.3-0.2,0.5-0.2l50.5,0.6
		c0.5,0,0.8-0.5,0.5-0.9l-30.2-40.5C277.6,95.1,277.6,94.9,277.6,94.7z M256.9,118.3l-9.2-0.1c-0.1,0-0.2,0-0.2,0.1l-5.3,7.5
		l-9.1,12.8c-0.1,0.2-0.4,0.1-0.4-0.1l-4.7-15l-2.7-8.8c0-0.1-0.1-0.1-0.2-0.2l-8.8-2.7l-15-4.7c-0.2-0.1-0.2-0.3-0.1-0.4l12.8-9.1
		l7.5-5.3c0.1,0,0.1-0.1,0.1-0.2l-0.1-9.2l-0.2-15.7c0-0.2,0.2-0.3,0.4-0.2l12.6,9.4l7.4,5.5c0.1,0,0.1,0.1,0.2,0l8.7-2.9l14.8-5
		c0.2-0.1,0.4,0.1,0.3,0.3l-5,14.8l-2.9,8.7c0,0.1,0,0.2,0,0.2l5.5,7.4l9.4,12.6c0.1,0.2,0,0.4-0.2,0.4L256.9,118.3z" />
  <path fill="#ebf4ff" d="M249.1,51.4l-7.4-0.7c-0.2,0-0.4-0.2-0.4-0.4l3.3-34.4c0-0.2,0.2-0.4,0.4-0.4l7.4,0.7c0.2,0,0.4,0.2,0.4,0.4L249.5,51
		C249.5,51.3,249.3,51.4,249.1,51.4z" />
  <path fill="#ebf4ff" d="M288.9,96.2L287,89c-0.1-0.2,0.1-0.4,0.3-0.5l33.4-9c0.2-0.1,0.4,0.1,0.5,0.3l1.9,7.2c0.1,0.2-0.1,0.4-0.3,0.5l-33.4,9
		C289.2,96.5,289,96.4,288.9,96.2z" />
  <path fill="#ebf4ff" d="M258.7,148.2l6.5-3.7c0.2-0.1,0.4,0,0.5,0.1l17.3,30c0.1,0.2,0,0.4-0.1,0.5l-6.5,3.7c-0.2,0.1-0.4,0-0.5-0.1l-17.3-30
		C258.4,148.6,258.5,148.4,258.7,148.2z" />
</svg>